<?xml version="1.0" standalone="no"?>
<!DOCTYPE svg PUBLIC "-//W3C//DTD SVG 20010904//EN"
 "http://www.w3.org/TR/2001/REC-SVG-20010904/DTD/svg10.dtd">
<svg version="1.0" xmlns="http://www.w3.org/2000/svg"
 width="256.000000pt" height="256.000000pt" viewBox="0 0 256.000000 256.000000"
 preserveAspectRatio="xMidYMid meet">
<g transform="translate(0.000000,256.000000) scale(0.100000,-0.100000)"
fill="#000000" stroke="none">
<path d="M827 2274 c-3 -3 -18 -7 -34 -8 -38 -4 -112 -25 -145 -42 -15 -8 -31
-15 -35 -16 -16 -4 -126 -108 -115 -108 4 0 2 -4 -4 -8 -5 -4 -19 -26 -31 -49
-11 -23 -23 -40 -26 -36 -4 3 -5 -4 -2 -15 2 -12 0 -24 -5 -27 -5 -3 -7 -14
-5 -25 2 -11 -1 -22 -6 -25 -5 -4 -7 -11 -4 -16 4 -5 -1 -12 -9 -15 -9 -3 -13
-10 -10 -15 3 -5 11 -6 17 -2 7 3 4 -3 -6 -14 -14 -16 -15 -22 -5 -26 8 -3 5
-6 -6 -6 -19 -1 -19 -1 -1 -14 11 -8 14 -16 8 -20 -6 -4 -8 -19 -5 -33 4 -21
2 -25 -9 -18 -9 5 -7 -2 5 -20 10 -16 14 -26 8 -22 -5 3 -13 -1 -16 -10 -3 -8
-2 -12 4 -9 14 9 12 -8 -2 -24 -9 -10 -9 -12 -1 -7 6 3 14 2 18 -4 5 -9 -6
-14 -25 -12 -3 0 -7 -9 -7 -20 -2 -20 -1 -20 12 -2 12 17 13 15 11 -24 -1 -24
-9 -48 -17 -54 -11 -8 -11 -9 3 -4 10 3 20 1 23 -4 5 -9 -6 -14 -26 -12 -3 1
-6 -6 -6 -13 0 -11 4 -12 14 -4 17 14 17 -2 1 -20 -10 -11 -10 -13 0 -7 7 5
12 1 12 -9 0 -9 -4 -14 -9 -10 -5 3 -13 0 -17 -6 -4 -7 -3 -9 3 -6 6 4 17 -1
24 -10 12 -14 12 -16 -1 -11 -11 4 -16 0 -16 -12 0 -10 3 -17 7 -14 11 6 5
-50 -6 -58 -6 -5 -2 -8 8 -8 10 0 15 -5 12 -10 -4 -6 -11 -8 -16 -5 -5 4 -9 1
-9 -4 0 -6 5 -11 10 -11 6 0 10 -5 10 -11 0 -5 -5 -7 -11 -3 -6 3 -3 -5 6 -20
10 -14 13 -26 7 -26 -6 0 -12 3 -15 8 -2 4 -2 2 -1 -5 2 -6 0 -14 -4 -16 -4
-2 -1 -2 6 -1 18 5 15 -13 -5 -26 -17 -11 -17 -11 -1 -6 22 7 33 -10 13 -18
-12 -4 -13 -11 -7 -23 5 -10 8 -37 7 -60 -2 -26 2 -43 9 -43 6 0 4 -4 -4 -9
-8 -6 -17 -8 -20 -6 -4 2 -7 -2 -7 -10 0 -11 4 -12 14 -4 17 14 17 -2 1 -20
-10 -11 -10 -13 0 -7 13 8 16 -3 6 -28 -3 -9 -11 -13 -18 -9 -7 4 -7 1 1 -9 7
-8 9 -19 5 -23 -4 -5 -1 -5 6 -1 7 4 9 12 6 18 -4 7 -2 8 4 4 9 -5 8 -15 -4
-38 -9 -16 -11 -27 -5 -24 19 12 12 -12 -6 -24 -17 -11 -17 -11 -1 -6 10 3 20
1 23 -4 5 -9 -6 -14 -26 -12 -3 1 -6 -6 -6 -13 0 -11 4 -12 14 -4 10 9 13 6
13 -17 0 -22 -3 -26 -10 -14 -6 9 -10 10 -10 3 0 -6 5 -15 11 -19 8 -4 7 -9
-2 -14 -7 -5 -14 -16 -15 -24 -1 -9 1 -14 4 -12 4 2 13 -2 20 -10 9 -10 9 -14
1 -14 -8 0 -8 -4 1 -15 6 -8 9 -19 5 -24 -3 -6 -2 -19 3 -28 5 -10 6 -29 2
-43 -10 -37 -2 -54 18 -38 13 11 14 10 3 -9 -10 -20 -9 -23 6 -23 12 0 14 -3
7 -8 -7 -4 -11 -21 -11 -39 1 -17 5 -29 9 -27 13 8 9 -11 -5 -26 -10 -12 -9
-12 6 0 15 11 20 11 30 0 9 -9 9 -11 0 -6 -6 3 -15 1 -19 -5 -4 -8 -3 -9 4 -5
7 4 12 4 13 -1 4 -43 7 -54 12 -59 4 -4 5 7 3 23 -5 34 7 62 18 44 4 -6 2 -11
-5 -11 -7 0 -4 -7 7 -15 16 -13 16 -14 1 -9 -13 5 -16 2 -11 -10 3 -9 10 -13
15 -10 13 8 11 -10 -3 -26 -11 -12 -10 -12 4 -1 20 15 25 2 6 -17 -9 -9 -9
-12 0 -12 7 0 12 6 12 13 0 8 4 7 11 -3 8 -12 9 -10 4 7 -3 12 -1 25 6 29 7 4
9 3 6 -3 -8 -12 14 -63 27 -63 4 0 6 6 3 13 -3 8 1 14 9 14 7 0 11 -4 9 -8 -7
-10 21 -30 31 -21 4 4 3 0 -4 -10 -9 -11 -10 -18 -2 -23 6 -3 8 -11 5 -16 -4
-5 -2 -9 3 -9 6 0 13 7 16 16 9 23 7 31 -3 15 -5 -7 -11 -9 -14 -4 -3 5 3 15
15 22 16 10 18 10 12 0 -5 -9 -2 -10 10 -6 14 5 15 3 6 -13 -15 -27 -12 -34 7
-19 9 8 14 9 11 4 -4 -6 -3 -17 1 -24 6 -10 10 -9 14 4 4 9 3 13 -3 10 -6 -3
-7 1 -4 10 6 14 10 11 26 -12 11 -15 18 -21 15 -11 -4 11 -1 15 11 13 9 -2 21
-4 25 -4 5 -1 5 -5 2 -11 -3 -5 -1 -10 5 -10 6 0 8 -6 4 -12 -6 -10 -4 -10 7
-1 17 17 32 17 23 1 -6 -10 -4 -10 7 -2 8 6 23 9 34 7 11 -2 34 -5 50 -6 17
-2 36 -7 44 -11 9 -6 12 -5 7 2 -3 6 -2 13 3 17 5 3 15 -3 21 -12 10 -16 11
-16 6 -1 -3 10 -1 20 4 23 10 6 15 -9 10 -30 -1 -5 2 -6 7 -2 4 5 8 15 8 23 0
7 4 13 9 13 5 0 12 5 16 11 5 8 9 7 13 -3 4 -11 0 -15 -13 -12 -17 3 -18 1 -8
-15 11 -17 13 -17 24 -2 7 9 11 24 9 34 -3 12 1 15 13 11 10 -4 12 -8 4 -11
-7 -2 -9 -8 -6 -13 3 -6 2 -16 -3 -22 -4 -7 2 -1 15 13 13 14 20 18 17 9 -7
-19 10 -35 20 -19 4 6 11 7 17 4 7 -4 8 -2 4 5 -4 6 -12 9 -17 6 -5 -4 -9 -2
-9 3 0 6 11 9 25 8 20 -1 24 -5 19 -21 -4 -15 -3 -16 4 -6 8 11 10 11 15 0 3
-8 4 1 2 19 -2 18 0 30 5 27 5 -3 7 -12 3 -20 -3 -8 0 -15 6 -15 6 0 11 4 11
8 0 5 7 9 15 9 16 0 20 -12 8 -20 -5 -2 -3 -2 4 -1 7 2 15 -1 18 -6 3 -4 13
-7 23 -5 9 1 24 -3 32 -9 12 -9 13 -8 3 4 -9 12 -8 19 4 35 12 16 14 16 10 3
-7 -19 8 -34 18 -18 4 6 10 8 15 5 5 -3 11 4 15 15 3 11 11 20 17 20 6 0 8 -3
5 -6 -3 -4 -2 -15 4 -26 8 -15 13 -17 25 -8 7 7 12 16 9 20 -3 5 0 12 6 16 8
5 9 3 4 -6 -6 -10 -4 -12 9 -7 9 4 30 0 46 -8 36 -18 50 -20 26 -2 -17 12 -17
14 1 28 16 13 17 13 4 -3 -12 -16 -11 -18 2 -18 9 0 18 4 21 9 3 4 20 7 38 7
18 -1 37 3 41 8 5 7 7 5 4 -4 -2 -8 -10 -14 -16 -12 -7 1 -10 -2 -6 -7 3 -6
13 -7 22 -4 9 4 14 2 10 -3 -3 -6 4 -11 15 -11 19 -2 19 -1 3 11 -13 9 -15 15
-6 20 6 4 9 11 7 15 -3 4 1 8 9 8 10 0 12 -4 5 -12 -7 -8 -1 -19 17 -36 15
-13 22 -17 15 -8 -6 9 -8 20 -4 24 4 5 1 5 -5 1 -7 -4 -13 -2 -13 4 0 7 8 9
20 5 14 -4 19 -2 17 7 -2 7 -2 10 0 6 3 -5 11 -8 19 -8 8 0 14 -5 14 -11 0 -5
4 -8 10 -4 5 3 7 13 4 23 -5 13 -4 14 4 4 5 -8 13 -13 18 -12 18 3 34 22 27
33 -3 6 -1 7 6 3 6 -4 9 -11 6 -16 -7 -11 16 -25 40 -25 11 0 23 -4 27 -10 5
-6 8 -4 8 5 0 12 2 13 9 1 7 -11 10 -9 16 8 3 11 11 21 16 21 6 0 7 -5 4 -10
-3 -6 -1 -10 4 -10 6 0 11 4 11 9 0 5 7 12 16 15 14 5 15 4 5 -8 -9 -10 -9
-16 -1 -21 7 -4 14 2 17 14 3 11 9 18 14 15 5 -3 9 0 9 7 0 7 3 9 6 6 4 -4 1
-13 -5 -21 -10 -12 -9 -14 6 -12 10 2 22 -2 26 -8 6 -7 7 -6 4 4 -2 8 -9 14
-15 13 -7 -2 -9 4 -5 14 4 11 8 13 11 5 2 -7 11 -12 19 -12 13 0 13 2 2 17
-13 15 -12 15 11 2 13 -8 30 -21 37 -29 11 -13 12 -12 6 4 -4 13 -3 17 5 12 6
-3 14 -1 18 5 4 7 3 9 -4 5 -6 -3 -13 -2 -17 3 -3 6 -11 9 -18 7 -7 -1 -9 -1
-4 1 4 3 5 9 2 13 -3 5 0 12 6 16 7 4 9 3 6 -3 -4 -6 0 -14 9 -17 8 -3 12 -2
9 3 -3 5 -1 12 5 16 5 3 10 12 10 18 0 7 -4 6 -10 -3 -6 -9 -10 -10 -10 -3 0
6 5 15 10 18 6 4 8 16 4 27 -4 15 -3 18 6 13 10 -6 11 -4 4 6 -13 20 -14 90
-1 82 6 -4 7 -1 2 7 -5 8 -9 45 -10 83 -1 58 1 66 12 51 7 -10 13 -13 13 -8 0
6 -6 16 -12 22 -8 8 -13 42 -13 88 -1 64 1 73 12 58 7 -10 13 -13 13 -7 0 6
-6 16 -14 22 -15 13 -18 93 -3 84 6 -4 7 -1 2 7 -12 19 -13 150 -1 143 5 -4 6
-1 0 8 -12 20 -13 90 -1 82 6 -4 7 -1 2 7 -5 8 -9 45 -10 83 -1 58 1 66 12 51
7 -10 13 -13 13 -7 0 6 -6 16 -14 22 -9 8 -14 34 -14 81 0 38 -3 73 -6 78 -4
6 -835 10 -869 4 -5 -1 -8 -14 -7 -29 4 -50 0 -74 -9 -68 -5 3 -13 0 -17 -6
-4 -8 -3 -9 4 -5 7 4 12 4 13 -1 0 -4 2 -16 4 -25 2 -10 -1 -18 -6 -18 -5 0
-9 -4 -9 -10 0 -5 3 -9 8 -9 23 4 24 -4 2 -17 -14 -8 -17 -13 -7 -10 22 7 22
-3 0 -21 -15 -12 -16 -14 -2 -10 12 4 17 -1 17 -21 0 -15 -5 -33 -10 -39 -7
-9 -6 -18 2 -28 11 -13 10 -15 -6 -9 -18 5 -18 5 -1 -6 9 -6 21 -9 25 -6 4 2
9 -5 9 -17 2 -15 0 -18 -6 -9 -7 11 -10 10 -14 -3 -4 -9 -3 -13 2 -10 5 3 12
-4 16 -15 3 -11 11 -20 17 -20 6 0 17 -8 25 -17 13 -16 13 -16 3 5 -11 22 -4
28 24 23 5 -1 6 6 2 16 -5 16 -4 16 6 3 15 -17 54 -27 44 -11 -4 5 -2 12 3 15
10 7 9 -13 -2 -31 -4 -6 -2 -15 4 -19 8 -4 9 -3 5 4 -4 7 -3 12 3 12 5 0 13
-5 16 -10 5 -8 11 -8 20 0 10 8 14 7 18 -2 3 -8 6 -6 6 6 1 12 -4 16 -14 12
-8 -3 -15 -1 -15 5 0 6 10 9 23 7 12 -2 21 -9 20 -15 -1 -6 6 -9 17 -6 13 3
20 0 20 -8 0 -11 2 -11 9 0 8 13 12 13 27 0 16 -13 16 -12 4 8 -12 18 -17 20
-30 10 -13 -10 -13 -10 -3 4 7 9 9 20 5 25 -4 5 2 2 13 -7 11 -9 26 -14 33
-12 6 3 12 0 12 -7 0 -6 -4 -8 -10 -5 -6 4 -7 -1 -3 -11 5 -14 8 -13 20 7 13
22 13 22 8 2 -3 -12 -1 -25 6 -29 7 -4 9 -3 5 4 -3 6 -3 13 2 16 4 2 8 -6 8
-19 0 -20 -3 -22 -20 -14 l-21 10 20 -18 c22 -19 24 -31 12 -50 -5 -8 -4 -13
3 -13 6 0 8 -5 5 -10 -4 -6 -12 -8 -18 -4 -7 3 -5 0 3 -8 20 -18 24 -39 8 -49
-10 -7 -10 -9 2 -9 9 -1 6 -6 -10 -16 -14 -8 -17 -13 -8 -10 10 3 20 1 23 -4
4 -6 -2 -10 -12 -11 -16 0 -16 -1 2 -9 13 -6 15 -9 5 -9 -9 -1 -11 -4 -5 -9
12 -9 16 -54 4 -46 -5 3 -9 0 -9 -5 0 -6 5 -11 12 -11 6 0 9 -3 6 -6 -9 -9
-70 -13 -251 -18 -92 -3 -172 -8 -177 -11 -6 -4 -10 -3 -10 2 0 10 -102 9
-118 -1 -7 -4 -12 -4 -12 1 0 4 -21 9 -47 9 -26 1 -49 7 -51 13 -2 6 -10 11
-18 11 -9 0 -12 5 -9 10 3 6 2 10 -3 10 -17 0 -31 46 -19 60 9 10 9 11 0 6 -8
-5 -13 -1 -13 9 0 10 5 13 12 9 7 -4 8 -3 4 4 -4 7 -2 12 4 12 6 0 8 5 4 11
-4 8 -9 7 -15 -2 -4 -7 -11 -11 -14 -7 -3 3 1 12 9 21 14 13 14 16 -2 22 -15
6 -15 8 6 25 12 10 18 21 13 24 -5 4 -11 0 -14 -6 -2 -7 -7 -10 -11 -7 -4 4 0
13 8 22 14 13 14 16 0 21 -13 5 -14 9 -4 21 7 8 9 15 4 15 -5 0 -9 15 -9 34 0
19 3 32 8 29 4 -2 7 0 7 6 0 5 -5 13 -11 16 -7 5 -4 14 7 26 17 19 17 20 -2
13 -16 -6 -17 -5 -6 7 16 17 16 43 0 33 -9 -5 -9 -3 1 9 7 9 18 14 24 10 6 -3
7 -1 3 5 -4 6 -14 8 -23 5 -12 -5 -14 -3 -7 8 12 20 14 39 3 39 -5 0 0 9 11
20 21 21 21 21 1 49 -19 26 -19 29 -3 45 16 16 16 17 -3 10 -16 -6 -18 -5 -7
7 16 17 16 43 0 33 -9 -5 -9 -3 1 9 7 9 18 14 24 10 6 -3 7 -1 3 5 -4 6 -14 8
-23 5 -12 -5 -14 -3 -7 8 12 20 14 39 3 39 -5 0 0 9 11 20 21 21 21 21 1 49
-19 26 -19 29 -3 45 16 16 16 17 -3 10 -19 -7 -19 -7 -2 13 17 19 17 21 1 27
-15 6 -15 8 2 28 11 12 14 18 8 15 -7 -4 -14 -1 -17 7 -3 8 1 13 11 12 18 -1
23 20 10 46 -4 9 -3 27 2 40 10 22 10 23 6 1 -4 -21 -2 -22 17 -11 12 7 25 12
29 13 3 0 9 3 13 7 9 9 -16 5 -35 -6 -8 -5 -4 3 10 16 l25 25 12 -21 c7 -12
12 -15 13 -8 0 6 7 12 16 12 9 0 12 -5 8 -12 -4 -7 -3 -8 4 -4 6 4 9 13 6 21
-5 12 -10 12 -27 3 -12 -6 -19 -7 -15 -3 4 4 3 17 -3 29 -9 19 -9 19 4 4 14
-18 33 -25 23 -10 -3 5 24 8 60 7 47 -1 68 3 73 13 6 10 10 11 15 3 4 -6 3
-11 -3 -11 -5 0 -8 -8 -6 -17 2 -10 4 -22 4 -26 1 -5 6 -5 12 -1 8 5 8 9 -1
14 -9 6 -9 9 1 16 21 13 49 15 49 5 0 -6 -9 -8 -20 -6 -17 3 -18 1 -7 -16 12
-19 28 -26 26 -11 -3 18 2 24 14 14 11 -9 36 -10 57 -2 3 1 9 2 13 1 5 -1 6 3
2 9 -3 6 -11 7 -17 4 -7 -4 -8 -2 -4 4 5 9 13 9 27 2 11 -6 16 -16 13 -22 -4
-6 -3 -8 4 -4 5 3 13 0 15 -6 4 -10 6 -10 6 0 1 7 6 10 13 6 7 -4 8 -3 4 4 -5
8 3 12 24 12 17 0 29 4 26 9 -3 5 1 14 9 21 10 9 15 9 15 1 0 -6 -5 -11 -11
-11 -8 0 -7 -6 2 -17 8 -10 9 -14 2 -10 -6 4 -14 3 -17 -2 -5 -8 15 -8 34 -1
3 1 9 2 13 1 5 -1 6 3 2 9 -3 6 -11 7 -17 4 -7 -4 -8 -2 -4 4 5 9 13 9 27 2
11 -6 24 -8 29 -5 6 4 9 2 8 -3 -2 -6 2 -10 7 -10 6 -1 9 5 7 13 -2 10 5 12
24 9 19 -3 24 -1 18 8 -4 7 -4 10 1 6 4 -4 14 -3 22 3 9 9 13 8 13 0 0 -6 -5
-11 -11 -11 -8 0 -8 -4 0 -13 8 -10 7 -14 -4 -14 -8 0 -11 5 -8 11 3 6 2 7 -2
3 -5 -4 -10 -14 -11 -23 -2 -12 1 -13 12 -3 8 6 14 8 14 4 0 -4 6 -2 13 4 8 6
18 7 22 3 5 -4 5 -1 1 6 -4 7 -12 9 -18 6 -7 -4 -8 -2 -4 4 5 9 13 9 27 2 11
-6 16 -16 13 -22 -4 -6 -3 -8 4 -4 5 3 13 0 15 -6 4 -10 6 -10 6 0 1 7 6 10
13 6 7 -4 8 -3 4 4 -5 8 3 12 24 12 17 0 29 4 26 9 -3 5 1 14 9 21 10 9 15 9
15 1 0 -6 -5 -11 -11 -11 -8 0 -7 -6 2 -17 8 -10 9 -14 2 -10 -6 4 -14 3 -17
-2 -5 -8 15 -8 34 -1 3 1 9 2 13 1 5 -1 6 3 2 9 -3 6 -11 7 -17 4 -7 -4 -8 -2
-4 4 5 9 13 9 27 2 11 -6 24 -8 29 -5 5 3 12 0 16 -6 4 -7 3 -9 -2 -6 -6 3
-16 1 -24 -4 -11 -7 -8 -8 10 -5 16 2 24 9 22 19 -2 12 4 15 24 11 16 -3 23
-1 19 6 -4 6 1 7 11 3 13 -5 15 -3 9 7 -5 8 -4 11 2 7 15 -10 61 45 58 71 -1
14 4 22 14 23 12 0 11 3 -4 9 -13 6 -15 9 -5 9 9 1 11 4 5 9 -16 11 -13 46 5
54 12 5 11 7 -5 7 -17 1 -17 3 -5 11 8 5 10 10 5 10 -6 0 -11 9 -12 21 -1 15
2 19 15 15 13 -5 13 -3 -2 9 -11 8 -14 15 -8 15 7 0 12 5 12 11 0 5 -4 8 -8 5
-11 -6 -9 56 2 73 7 10 6 12 -3 6 -9 -5 -12 -1 -11 11 1 11 2 29 1 42 l-1 22
-579 0 c-318 0 -581 -3 -584 -6z m475 -441 c-9 -3 -10 -9 -3 -17 7 -8 4 -12
-9 -13 -11 -1 -22 2 -25 8 -3 5 2 6 12 3 16 -5 15 -3 -2 12 -16 13 -17 16 -3
11 10 -3 20 -2 24 4 3 6 9 7 13 3 3 -4 0 -9 -7 -11z m81 -11 c4 9 6 9 6 1 2
-23 -18 -23 -29 -1 -10 21 -10 22 3 5 11 -14 16 -15 20 -5z m320 0 c4 9 6 9 6
1 2 -23 -18 -23 -29 -1 -10 21 -10 22 3 5 11 -14 16 -15 20 -5z m-767 -128 c2
-12 -1 -13 -12 -3 -7 6 -11 16 -8 21 7 11 17 3 20 -18z m-3 -210 c-7 -20 -10
-18 -15 11 -4 20 -2 23 8 14 7 -6 10 -17 7 -25z m0 -240 c-7 -20 -10 -18 -15
11 -4 20 -2 23 8 14 7 -6 10 -17 7 -25z m357 -118 c0 -3 -4 -8 -10 -11 -5 -3
-10 -1 -10 4 0 6 5 11 10 11 6 0 10 -2 10 -4z m30 -71 c-7 -9 -10 -19 -6 -22
4 -4 11 -1 16 7 6 9 10 10 10 3 0 -17 -20 -27 -31 -16 -11 11 -1 43 13 43 6 0
5 -7 -2 -15z m210 -27 c0 -6 -6 -5 -15 2 -8 7 -15 14 -15 16 0 2 7 1 15 -2 8
-4 15 -11 15 -16z m-76 -14 c3 -8 2 -12 -4 -9 -6 3 -10 10 -10 16 0 14 7 11
14 -7z m-1044 -278 c0 -11 -19 -15 -25 -6 -3 5 1 10 9 10 9 0 16 -2 16 -4z
m49 -283 c-2 -1 5 -10 16 -19 19 -16 19 -16 -4 -2 -13 8 -26 25 -27 39 -4 23
-3 23 8 4 6 -11 10 -21 7 -22z m1185 -191 c3 -5 -1 -9 -9 -9 -8 0 -12 4 -9 9
3 4 7 8 9 8 2 0 6 -4 9 -8z m258 -9 c-6 -3 -9 -10 -6 -15 4 -7 2 -8 -5 -4 -9
6 -9 11 0 22 6 8 15 12 18 8 3 -4 0 -9 -7 -11z m38 -11 c0 -5 -7 -9 -15 -9 -8
0 -12 4 -9 9 3 4 9 8 15 8 5 0 9 -4 9 -8z m-1094 -18 c0 -9 6 -18 14 -19 8 -2
22 -4 30 -6 9 -3 14 2 12 10 -2 11 0 12 11 3 10 -9 17 -9 27 1 9 8 11 9 6 0
-8 -14 10 -27 19 -13 8 13 25 13 25 -1 0 -5 -4 -8 -9 -4 -5 3 -12 1 -15 -3 -3
-5 -25 -7 -48 -5 -24 2 -52 4 -64 5 -15 1 -20 8 -19 23 3 23 4 25 9 25 2 0 3
-7 2 -16z m524 -4 c0 -5 -5 -10 -11 -10 -5 0 -7 5 -4 10 3 6 8 10 11 10 2 0 4
-4 4 -10z m-66 -31 c-3 -6 -12 -3 -21 8 -14 17 -14 17 -8 -2 5 -15 3 -17 -6
-8 -18 18 -2 35 22 23 11 -6 17 -16 13 -21z m-484 17 c0 -3 -4 -8 -10 -11 -5
-3 -10 -1 -10 4 0 6 5 11 10 11 6 0 10 -2 10 -4z m620 0 c0 -3 -4 -8 -10 -11
-5 -3 -10 -1 -10 4 0 6 5 11 10 11 6 0 10 -2 10 -4z"/>
<path d="M2015 1920 c3 -5 8 -10 11 -10 2 0 4 5 4 10 0 6 -5 10 -11 10 -5 0
-7 -4 -4 -10z"/>
<path d="M1959 1843 c-18 -21 -35 -36 -37 -35 -2 2 -6 1 -9 -1 -3 -3 2 -4 11
-3 8 1 18 5 22 9 4 4 12 -1 19 -10 9 -13 14 -13 20 -3 5 8 4 11 -2 7 -6 -4
-10 4 -10 19 0 24 0 24 21 7 12 -10 16 -12 9 -3 -16 21 -17 32 -1 41 8 6 9 9
2 9 -7 0 -27 -17 -45 -37z"/>
<path d="M1067 1807 c2 -4 8 -5 13 -2 5 3 11 1 14 -4 9 -14 39 -7 44 10 3 11
1 11 -7 -1 -6 -8 -11 -10 -11 -4 0 7 -13 11 -29 10 -16 0 -27 -4 -24 -9z"/>
<path d="M1153 1798 c-1 -10 3 -18 9 -18 6 0 8 3 5 7 -4 3 -2 11 3 18 7 8 6
12 -3 12 -7 0 -14 -9 -14 -19z"/>
<path d="M1916 1778 c3 -5 10 -6 15 -3 13 9 11 12 -6 12 -8 0 -12 -4 -9 -9z"/>
<path d="M2176 1327 c3 -10 9 -15 12 -12 3 3 0 11 -7 18 -10 9 -11 8 -5 -6z"/>
<path d="M2190 1281 c0 -6 4 -13 10 -16 6 -3 7 1 4 9 -7 18 -14 21 -14 7z"/>
<path d="M1255 1160 c3 -5 8 -10 11 -10 2 0 4 5 4 10 0 6 -5 10 -11 10 -5 0
-7 -4 -4 -10z"/>
<path d="M939 1028 c-6 -23 -7 -48 -1 -52 4 -2 7 9 7 25 1 24 -2 38 -6 27z"/>
<path d="M1267 1019 c7 -7 15 -10 18 -7 3 3 -2 9 -12 12 -14 6 -15 5 -6 -5z"/>
<path d="M1358 1001 c4 -10 7 -11 10 -3 2 7 8 10 12 7 5 -3 11 -2 14 3 2 4 -6
8 -19 8 -16 0 -21 -4 -17 -15z"/>
<path d="M2175 819 c-4 -6 -4 -13 -1 -16 3 -4 6 -1 6 6 0 7 5 9 12 5 7 -4 8
-3 4 4 -9 15 -13 15 -21 1z"/>
<path d="M373 647 c-1 -11 -1 -18 0 -16 2 2 8 11 15 20 9 12 9 16 -1 16 -7 0
-14 -9 -14 -20z"/>
<path d="M393 611 c0 -11 5 -18 9 -15 4 3 5 11 1 19 -7 21 -12 19 -10 -4z"/>
<path d="M396 511 c-3 -5 1 -11 9 -14 9 -4 12 -1 8 9 -6 16 -10 17 -17 5z"/>
<path d="M2175 419 c-4 -6 -4 -13 -1 -16 3 -4 6 -1 6 6 0 7 5 9 12 5 7 -4 8
-3 4 4 -9 15 -13 15 -21 1z"/>
<path d="M2175 300 c-3 -5 -1 -10 4 -10 6 0 11 5 11 10 0 6 -2 10 -4 10 -3 0
-8 -4 -11 -10z"/>
<path d="M580 260 c-12 -7 -10 -9 8 -7 12 0 22 5 22 9 0 11 -12 10 -30 -2z"/>
<path d="M1825 230 c-4 -6 -11 -7 -17 -4 -7 4 -8 2 -4 -4 4 -7 1 -12 -6 -12
-8 0 -6 -5 5 -11 10 -6 21 -8 24 -5 4 3 1 6 -6 6 -7 0 -10 4 -6 10 3 5 12 7
20 3 8 -3 15 0 15 5 0 16 -18 24 -25 12z"/>
<path d="M1564 208 c-3 -4 -4 -8 -2 -9 36 -8 48 -7 48 5 0 15 -38 18 -46 4z"/>
<path d="M1740 210 c-9 -6 -10 -10 -3 -10 6 0 15 5 18 10 8 12 4 12 -15 0z"/>
<path d="M1390 196 c0 -8 4 -17 9 -20 5 -4 7 3 4 14 -6 23 -13 26 -13 6z"/>
<path d="M1460 195 c-7 -9 -10 -18 -7 -22 4 -3 9 2 13 11 6 16 8 16 25 0 22
-20 26 -10 5 12 -18 18 -21 18 -36 -1z"/>
<path d="M1211 173 c-1 -17 16 -25 25 -12 4 7 3 9 -4 5 -5 -3 -13 0 -15 6 -4
9 -6 10 -6 1z"/>
<path d="M845 160 c-3 -6 1 -7 9 -4 18 7 21 14 7 14 -6 0 -13 -4 -16 -10z"/>
</g>
</svg>
